<?xml version="1.0" encoding="iso-8859-1"?>
<!-- Generator: Adobe Illustrator 19.0.0, SVG Export Plug-In . SVG Version: 6.00 Build 0)  -->
<svg version="1.1" id="Capa_1" xmlns="http://www.w3.org/2000/svg" xmlns:xlink="http://www.w3.org/1999/xlink" x="0px" y="0px"
	 viewBox="0 0 511.734 511.734" style="enable-background:new 0 0 511.734 511.734;" xml:space="preserve">
<g>
	<g>
		<path d="M491.744,8.65H259.865c-11.022,0-19.99,8.964-19.99,19.989v367.813c0,11.025,8.968,19.989,19.99,19.989h231.879
			c11.025,0,19.99-8.964,19.99-19.99V28.639C511.734,17.614,502.769,8.65,491.744,8.65z M503.738,396.451
			c0,6.606-5.38,11.994-11.994,11.994H259.865c-6.614,0-11.994-5.388-11.994-11.994V28.639c0-6.613,5.38-11.994,11.994-11.994
			h231.879c6.614,0,11.994,5.381,11.994,11.994V396.451z"/>
	</g>
</g>
<g>
	<g>
		<path d="M267.86,40.634c-2.21,0-3.997,1.788-3.997,3.998v23.987c0,2.21,1.787,3.998,3.997,3.998c2.21,0,3.998-1.788,3.998-3.998
			V44.632C271.858,42.422,270.07,40.634,267.86,40.634z"/>
	</g>
</g>
<g>
	<g>
		<path d="M283.852,40.634c-2.21,0-3.998,1.788-3.998,3.998v23.987c0,2.21,1.788,3.998,3.998,3.998c2.21,0,3.998-1.788,3.998-3.998
			V44.632C287.85,42.422,286.062,40.634,283.852,40.634z"/>
	</g>
</g>
<g>
	<g>
		<path d="M281.197,56.625h-10.666c-2.21,0-3.998,1.788-3.998,3.998c0,2.21,1.788,3.998,3.998,3.998h10.666
			c2.21,0,3.998-1.788,3.998-3.998C285.195,58.413,283.407,56.625,281.197,56.625z"/>
	</g>
</g>
<g>
	<g>
		<path d="M278.683,33.809c-1.562-1.562-4.092-1.562-5.654,0l-7.995,7.996c-1.562,1.561-1.562,4.091,0,5.653
			c0.78,0.781,1.804,1.171,2.826,1.171c1.024,0,2.046-0.39,2.827-1.171l7.996-7.996C280.245,37.901,280.245,35.371,278.683,33.809z"
			/>
	</g>
</g>
<g>
	<g>
		<path d="M286.678,41.805l-7.995-7.996c-1.562-1.562-4.092-1.562-5.654,0c-1.561,1.561-1.561,4.091,0,5.653l7.996,7.996
			c0.781,0.781,1.804,1.171,2.827,1.171s2.046-0.39,2.826-1.171C288.24,45.897,288.24,43.367,286.678,41.805z"/>
	</g>
</g>
<g>
	<g>
		<path d="M291.941,95.027l-13.258-13.243c-1.562-1.562-4.092-1.562-5.654,0l-13.246,13.243c-5.197,5.208-5.197,13.687,0.004,18.912
			c4.185,4.184,11.056,5.02,16.069,2.162c1.999,1.141,4.272,1.75,6.63,1.75c3.569,0,6.926-1.39,9.463-3.92
			C297.142,108.722,297.142,100.243,291.941,95.027z M286.288,108.278c-2.031,2.03-5.576,2.03-7.605,0
			c-0.781-0.773-1.812-1.164-2.827-1.164c-1.022,0-2.046,0.391-2.828,1.172c-2.021,2.03-5.574,2.023-7.582,0.008
			c-2.096-2.1-2.096-5.52-0.008-7.613l10.417-10.417l10.425,10.409C288.372,102.773,288.372,106.193,286.288,108.278z"/>
	</g>
</g>
<g>
	<g>
		<path d="M283.852,120.592H267.86c-2.21,0-3.997,1.788-3.997,3.998c0,2.21,1.787,3.998,3.997,3.998h15.992
			c2.21,0,3.998-1.788,3.998-3.998C287.85,122.38,286.062,120.592,283.852,120.592z"/>
	</g>
</g>
<g>
	<g>
		<path d="M275.856,116.594c-2.21,0-3.998,1.788-3.998,3.998v3.998c0,2.21,1.788,3.998,3.998,3.998c2.21,0,3.998-1.788,3.998-3.998
			v-3.998C279.854,118.382,278.066,116.594,275.856,116.594z"/>
	</g>
</g>
<g>
	<g>
		<path d="M467.757,304.5c-2.21,0-3.998,1.78-3.998,3.998v23.987c0,2.202,1.788,3.998,3.998,3.998c2.21,0,3.998-1.796,3.998-3.998
			v-23.987C471.755,306.28,469.967,304.5,467.757,304.5z"/>
	</g>
</g>
<g>
	<g>
		<path d="M483.748,304.5c-2.209,0-3.998,1.78-3.998,3.998v23.987c0,2.202,1.789,3.998,3.998,3.998c2.21,0,3.998-1.796,3.998-3.998
			v-23.987C487.746,306.28,485.958,304.5,483.748,304.5z"/>
	</g>
</g>
<g>
	<g>
		<path d="M481.086,320.492h-10.658c-2.21,0-3.998,1.779-3.998,3.998c0,2.201,1.788,3.997,3.998,3.997h10.658
			c2.21,0,3.998-1.796,3.998-3.997C485.084,322.271,483.296,320.492,481.086,320.492z"/>
	</g>
</g>
<g>
	<g>
		<path d="M478.579,297.676c-1.561-1.562-4.091-1.562-5.653,0l-7.996,7.996c-1.562,1.56-1.562,4.09,0,5.652
			c0.781,0.781,1.805,1.172,2.827,1.172s2.046-0.391,2.827-1.172l7.995-7.995C480.141,301.768,480.141,299.238,478.579,297.676z"/>
	</g>
</g>
<g>
	<g>
		<path d="M486.575,305.672l-7.996-7.996c-1.561-1.562-4.091-1.562-5.653,0c-1.562,1.561-1.562,4.091,0,5.653l7.996,7.995
			c0.781,0.781,1.804,1.172,2.826,1.172c1.023,0,2.046-0.391,2.827-1.172C488.137,309.763,488.137,307.233,486.575,305.672z"/>
	</g>
</g>
<g>
	<g>
		<path d="M491.83,358.894l-13.251-13.243c-1.561-1.562-4.091-1.562-5.653,0l-13.251,13.243c-5.208,5.2-5.208,13.681,0.008,18.912
			c4.201,4.185,11.064,5.028,16.07,2.155c1.999,1.14,4.263,1.749,6.621,1.749c3.576,0,6.927-1.39,9.464-3.92
			C497.022,372.59,497.022,364.11,491.83,358.894z M486.184,372.152c-2.045,2.015-5.575,2.015-7.605,0
			c-0.78-0.781-1.804-1.171-2.826-1.171c-1.024,0-2.046,0.39-2.828,1.171c-2.03,2.015-5.575,1.999-7.59,0
			c-2.093-2.108-2.101-5.512-0.008-7.605l10.425-10.416l10.416,10.4C488.261,366.639,488.261,370.059,486.184,372.152z"/>
	</g>
</g>
<g>
	<g>
		<path d="M483.748,384.459h-15.991c-2.21,0-3.998,1.779-3.998,3.998c0,2.201,1.788,3.997,3.998,3.997h15.991
			c2.21,0,3.998-1.796,3.998-3.997C487.746,386.238,485.958,384.459,483.748,384.459z"/>
	</g>
</g>
<g>
	<g>
		<path d="M475.753,380.461c-2.21,0-3.998,1.78-3.998,3.998v3.998c0,2.201,1.788,3.997,3.998,3.997c2.21,0,3.997-1.796,3.997-3.997
			v-3.998C479.75,382.241,477.963,380.461,475.753,380.461z"/>
	</g>
</g>
<g>
	<g>
		<path d="M421.703,189.727l-43.057-43.056c-1.561-1.562-4.091-1.562-5.653,0l-43.071,43.056c-13.414,13.431-13.414,35.279,0,48.709
			c6.512,6.505,15.164,10.089,24.362,10.089c7.926,0,15.445-2.663,21.536-7.551c6.09,4.888,13.602,7.551,21.52,7.551
			c9.199,0,17.85-3.584,24.363-10.089C435.125,225.006,435.125,203.158,421.703,189.727z M416.048,232.783
			c-9.994,9.987-27.415,9.972-37.402,0c-0.78-0.78-1.804-1.171-2.826-1.171c-1.023,0-2.046,0.391-2.828,1.171
			c-9.994,9.979-27.423,9.979-37.418,0c-10.291-10.314-10.291-27.087,0-37.402l40.245-40.229l40.229,40.229
			C426.356,205.696,426.356,222.469,416.048,232.783z"/>
	</g>
</g>
<g>
	<g>
		<path d="M410.388,201.033l-31.742-31.749c-1.561-1.562-4.091-1.562-5.653,0l-31.765,31.749c-7.183,7.2-7.168,18.905,0.016,26.096
			c3.342,3.343,8.098,5.256,13.048,5.264c4.944,0,9.691-1.921,13.048-5.264c4.529-4.528,12.416-4.528,16.952,0
			c3.351,3.351,8.106,5.264,13.048,5.264c4.943,0,9.698-1.921,13.071-5.272C417.587,219.929,417.579,208.224,410.388,201.033z
			 M404.757,221.46c-3.74,3.733-11.087,3.733-14.812,0.016c-3.771-3.779-8.792-5.855-14.125-5.855
			c-5.341,0-10.354,2.076-14.131,5.847c-1.86,1.859-4.561,2.929-7.396,2.929c-2.85-0.008-5.537-1.07-7.395-2.921
			c-4.076-4.075-4.076-10.713-0.016-14.789l28.938-28.922l28.914,28.922C408.81,210.763,408.818,217.393,404.757,221.46z"/>
	</g>
</g>
<g>
	<g>
		<path d="M403.79,264.52h-55.971c-2.21,0-3.998,1.78-3.998,3.998c0,2.202,1.788,3.998,3.998,3.998h55.971
			c2.21,0,3.998-1.795,3.998-3.998C407.788,266.3,406,264.52,403.79,264.52z"/>
	</g>
</g>
<g>
	<g>
		<path d="M375.805,248.525c-2.21,0-3.998,1.788-3.998,3.998v15.995c0,2.202,1.788,3.998,3.998,3.998
			c2.209,0,3.998-1.795,3.998-3.998v-15.995C379.803,250.313,378.015,248.525,375.805,248.525z"/>
	</g>
</g>
<g>
	<g>
		<path d="M332.437,423.407c-0.57-2.14-2.764-3.359-4.903-2.843l-67.212,18.007c-3.08,0.859-6.301,0.405-9.093-1.203
			c-2.783-1.608-4.771-4.184-5.595-7.277l-95.2-355.257c-1.706-6.387,2.1-12.978,8.487-14.688l73.634-19.731
			c2.132-0.578,3.397-2.764,2.827-4.904c-0.566-2.131-2.76-3.342-4.896-2.826l-73.633,19.731
			c-10.647,2.858-16.987,13.837-14.141,24.487l95.2,355.265c1.374,5.139,4.685,9.448,9.319,12.119
			c3.092,1.796,6.52,2.701,9.983,2.701c1.729,0,3.466-0.234,5.177-0.687l67.219-18.006
			C331.734,427.717,332.999,425.531,332.437,423.407z"/>
	</g>
</g>
<g>
	<g>
		<path d="M183.956,107.231l-8.277-30.89c-0.566-2.124-2.76-3.35-4.896-2.827c-2.132,0.578-3.397,2.764-2.827,4.904l8.277,30.89
			c0.476,1.78,2.092,2.96,3.857,2.96c0.343,0,0.691-0.047,1.039-0.133C183.261,111.557,184.526,109.371,183.956,107.231z"/>
	</g>
</g>
<g>
	<g>
		<path d="M187.546,89.709c-0.573-2.124-2.768-3.397-4.899-2.819l-7.73,2.077c-2.132,0.571-3.397,2.764-2.823,4.896
			c0.48,1.78,2.092,2.96,3.857,2.96c0.344,0,0.695-0.047,1.042-0.141l7.73-2.077C186.855,94.034,188.12,91.84,187.546,89.709z"/>
	</g>
</g>
<g>
	<g>
		<path d="M213.702,125.534c-0.925-3.451-3.135-6.332-6.231-8.12c-5.127-2.976-11.982-1.968-16.082,2.077
			c-5.665-1.5-12.014,1.116-14.977,6.238c-3.678,6.38-1.487,14.572,4.892,18.265l16.226,9.37c0.613,0.358,1.304,0.538,1.999,0.538
			c0.347,0,0.694-0.047,1.035-0.132c1.023-0.28,1.898-0.944,2.429-1.866l9.366-16.226
			C214.151,132.586,214.628,128.986,213.702,125.534z M205.436,131.673l-7.371,12.774l-12.759-7.371
			c-2.565-1.484-3.448-4.786-1.972-7.348c0.961-1.656,2.745-2.686,4.654-2.686c0.937,0,1.862,0.258,2.683,0.728
			c1.917,1.109,4.361,0.445,5.462-1.46c1.433-2.484,4.845-3.413,7.336-1.976c1.245,0.718,2.135,1.881,2.506,3.271
			C206.346,128.987,206.158,130.432,205.436,131.673z"/>
	</g>
</g>
<g>
	<g>
		<path d="M188.062,69.321c-2.159-0.452-4.276,0.961-4.717,3.124l-3.576,17.506c-0.441,2.163,0.953,4.272,3.116,4.717
			c0.269,0.055,0.538,0.078,0.804,0.078c1.859,0,3.526-1.304,3.912-3.201l3.576-17.507
			C191.619,71.875,190.225,69.766,188.062,69.321z"/>
	</g>
</g>
<g>
	<g>
		<path d="M198.533,101.484L186.68,88.1c-1.473-1.663-3.994-1.812-5.646-0.343c-1.651,1.46-1.807,3.99-0.343,5.638l11.853,13.383
			c0.793,0.899,1.89,1.352,2.995,1.352c0.944,0,1.89-0.328,2.651-1.008C199.841,105.662,199.997,103.131,198.533,101.484z"/>
	</g>
</g>
<g>
	<g>
		<path d="M337.028,433.418c-1.108-1.922-3.553-2.577-5.457-1.469l-60.609,34.998c-5.755,3.295-13.107,1.327-16.41-4.389
			L70.651,144.009c-1.593-2.749-2.011-5.973-1.179-9.074c0.831-3.115,2.807-5.7,5.567-7.293l64.139-37.027
			c1.913-1.101,2.569-3.545,1.464-5.458c-1.112-1.913-3.557-2.585-5.462-1.46l-64.135,37.02c-4.611,2.663-7.914,6.972-9.3,12.15
			c-1.382,5.168-0.68,10.548,1.983,15.147l183.897,318.542c3.697,6.403,10.439,9.979,17.362,9.979c3.389,0,6.824-0.858,9.965-2.67
			l60.616-34.998C337.481,437.774,338.137,435.322,337.028,433.418z"/>
	</g>
</g>
<g>
	<g>
		<path d="M111.415,166.662l-15.992-27.705c-1.105-1.913-3.561-2.584-5.462-1.46c-1.913,1.102-2.569,3.545-1.464,5.458
			l15.991,27.704c0.742,1.281,2.085,1.999,3.467,1.999c0.68,0,1.367-0.172,1.996-0.538
			C111.864,171.018,112.52,168.575,111.415,166.662z"/>
	</g>
</g>
<g>
	<g>
		<path d="M109.276,130.962c-1.109-1.913-3.565-2.585-5.462-1.461l-13.853,7.996c-1.913,1.102-2.569,3.545-1.464,5.458
			c0.742,1.281,2.085,1.999,3.467,1.999c0.679,0,1.366-0.172,1.996-0.539l13.852-7.995
			C109.725,135.318,110.38,132.875,109.276,130.962z"/>
	</g>
</g>
<g>
	<g>
		<path d="M125.265,158.666l-15.991-27.704c-1.109-1.913-3.565-2.585-5.462-1.461c-1.913,1.102-2.569,3.545-1.464,5.458
			l15.992,27.705c0.742,1.28,2.085,1.999,3.467,1.999c0.68,0,1.367-0.172,1.994-0.539
			C125.714,163.023,126.37,160.579,125.265,158.666z"/>
	</g>
</g>
<g>
	<g>
		<path d="M125.266,158.666c-1.112-1.913-3.561-2.577-5.462-1.46l-13.852,7.995c-1.913,1.102-2.568,3.545-1.464,5.458
			c0.742,1.281,2.085,1.999,3.467,1.999c0.68,0,1.367-0.172,1.995-0.538l13.852-7.996
			C125.715,163.023,126.371,160.579,125.266,158.666z"/>
	</g>
</g>
<g>
	<g>
		<path d="M129.764,152.802l-21.856-5.856c-2.112-0.516-4.326,0.703-4.896,2.827c-0.569,2.138,0.696,4.325,2.827,4.903l21.856,5.856
			c0.348,0.086,0.695,0.133,1.039,0.133c1.764,0,3.381-1.18,3.856-2.96C133.16,155.566,131.896,153.38,129.764,152.802z"/>
	</g>
</g>
<g>
	<g>
		<path d="M148.177,184.084l-23.831-9.308c-1.137-0.422-2.394-0.343-3.456,0.266c-1.05,0.601-1.768,1.655-1.952,2.858l-3.865,25.314
			c-0.285,1.85,0.753,3.646,2.494,4.326l23.848,9.315c0.472,0.179,0.964,0.273,1.456,0.273c0.695,0,1.386-0.18,1.999-0.538
			c1.054-0.601,1.772-1.655,1.952-2.857l3.85-25.323C150.953,186.56,149.918,184.764,148.177,184.084z M139.669,207.586
			l-16.21-6.333l2.628-17.21l16.202,6.325L139.669,207.586z"/>
	</g>
</g>
<g>
	<g>
		<path d="M343.782,442.007c-1.561-1.562-4.091-1.562-5.653,0l-49.584,49.583c-4.693,4.67-12.298,4.686-16.968,0L11.494,231.51
			c-2.257-2.249-3.498-5.262-3.498-8.479c0-3.21,1.237-6.224,3.49-8.473l52.379-52.379c1.562-1.561,1.561-4.091,0-5.653
			c-1.561-1.562-4.091-1.562-5.653,0L5.833,208.905C2.069,212.669,0,217.682,0,223.039c0.004,5.349,2.077,10.369,5.841,14.125
			l260.082,260.08c3.889,3.889,9.004,5.84,14.134,5.84c5.107,0,10.23-1.936,14.133-5.824l49.592-49.6
			C345.344,446.099,345.343,443.569,343.782,442.007z"/>
	</g>
</g>
<g>
	<g>
		<path d="M62.382,225.865l-16.609-16.616c-1.561-1.562-4.091-1.562-5.653,0c-1.562,1.561-1.562,4.091,0,5.653l16.609,16.616
			c0.78,0.781,1.804,1.171,2.826,1.171c1.023,0,2.045-0.389,2.827-1.171C63.944,229.957,63.944,227.427,62.382,225.865z"/>
	</g>
</g>
<g>
	<g>
		<path d="M59.555,224.694c-2.209,0-3.998,1.788-3.998,3.998v11.307c0,2.209,1.789,3.997,3.998,3.997s3.998-1.788,3.998-3.997
			v-11.307C63.553,226.482,61.765,224.694,59.555,224.694z"/>
	</g>
</g>
<g>
	<g>
		<path d="M59.554,236.001H48.24c-2.209,0-3.998,1.788-3.998,3.998c0,2.209,1.789,3.997,3.998,3.997h11.315
			c2.209,0,3.998-1.788,3.997-3.997C63.552,237.789,61.764,236.001,59.554,236.001z"/>
	</g>
</g>
<g>
	<g>
		<path d="M51.074,203.245c-1.562-1.562-4.091-1.562-5.653,0l-11.314,11.314c-1.562,1.561-1.562,4.091,0,5.653
			c0.78,0.781,1.804,1.171,2.826,1.171c1.024,0,2.046-0.39,2.827-1.171l11.314-11.314C52.636,207.337,52.636,204.807,51.074,203.245
			z"/>
	</g>
</g>
<g>
	<g>
		<path d="M90.652,265.442c-4.529-4.533-12.416-4.533-16.96,0c-2.269,2.249-3.518,5.263-3.522,8.464
			c0,3.202,1.249,6.216,3.518,8.496c2.265,2.265,5.275,3.514,8.476,3.514c3.202,0,6.212-1.249,8.488-3.514
			C95.317,277.716,95.321,270.111,90.652,265.442z M84.999,276.75c-1.519,1.515-4.138,1.515-5.657,0
			c-0.758-0.766-1.176-1.765-1.176-2.843c0-1.062,0.418-2.061,1.168-2.811c0.761-0.75,1.769-1.172,2.842-1.172
			c1.069,0,2.073,0.422,2.823,1.173C86.553,272.643,86.549,275.188,84.999,276.75z"/>
	</g>
</g>
<g>
	<g>
		<path d="M107.608,248.479c-4.529-4.529-12.435-4.529-16.956,0c-2.272,2.264-3.522,5.278-3.522,8.48
			c0.004,3.201,1.249,6.214,3.518,8.483c2.261,2.265,5.271,3.514,8.472,3.514c3.202,0,6.216-1.249,8.488-3.513
			C112.285,260.761,112.285,253.157,107.608,248.479z M101.959,259.785c-1.519,1.515-4.158,1.507-5.653,0.008
			c-0.758-0.758-1.18-1.765-1.18-2.834c0-1.07,0.418-2.069,1.176-2.827c0.757-0.758,1.761-1.171,2.826-1.171
			c1.066,0,2.069,0.413,2.827,1.171C103.513,255.693,103.513,258.223,101.959,259.785z"/>
	</g>
</g>
<g>
	<g>
		<path d="M87.826,245.652c-4.517-4.529-12.407-4.529-16.964,0c-2.268,2.271-3.518,5.278-3.518,8.487
			c0.004,3.194,1.254,6.208,3.514,8.472c2.26,2.269,5.274,3.518,8.48,3.518c3.197,0,6.211-1.249,8.488-3.518
			C92.496,257.926,92.492,250.321,87.826,245.652z M82.171,256.958c-1.522,1.514-4.15,1.514-5.657,0
			c-0.758-0.758-1.175-1.758-1.175-2.827c0-1.061,0.417-2.069,1.167-2.818c0.762-0.758,1.773-1.172,2.847-1.172
			c1.066,0,2.065,0.414,2.814,1.164C83.725,252.858,83.721,255.396,82.171,256.958z"/>
	</g>
</g>
<g>
	<g>
		<path d="M116.088,268.269c-1.561-1.562-4.091-1.562-5.653,0l-16.96,16.96c-1.562,1.562-1.562,4.091,0,5.653
			c0.781,0.781,1.804,1.172,2.827,1.172c1.022,0,2.045-0.391,2.826-1.172l16.96-16.96
			C117.65,272.361,117.649,269.831,116.088,268.269z"/>
	</g>
</g>
<g>
	<g>
		<path d="M107.608,276.749l-8.48-8.48c-1.561-1.562-4.091-1.561-5.653,0c-1.562,1.561-1.562,4.091,0,5.653l8.48,8.48
			c0.78,0.781,1.804,1.171,2.826,1.171c1.023,0,2.046-0.39,2.827-1.171C109.17,280.841,109.17,278.311,107.608,276.749z"/>
	</g>
</g>
<g>
</g>
<g>
</g>
<g>
</g>
<g>
</g>
<g>
</g>
<g>
</g>
<g>
</g>
<g>
</g>
<g>
</g>
<g>
</g>
<g>
</g>
<g>
</g>
<g>
</g>
<g>
</g>
<g>
</g>
</svg>
